<?xml version="1.0" encoding="utf-8"?>
<!-- Generator: Adobe Illustrator 18.0.0, SVG Export Plug-In . SVG Version: 6.00 Build 0)  -->
<!DOCTYPE svg PUBLIC "-//W3C//DTD SVG 1.1//EN" "http://www.w3.org/Graphics/SVG/1.1/DTD/svg11.dtd">
<svg version="1.1" id="Layer_1" xmlns="http://www.w3.org/2000/svg" xmlns:xlink="http://www.w3.org/1999/xlink" x="0px" y="0px"
	 viewBox="0 0 120 120" enable-background="new 0 0 120 120" xml:space="preserve">
<path opacity="0.2" fill="#818181" d="M98.3,47.3c0,1.8,0,12.7,0,16.1c0,2.6-0.7,5.3-2.7,7.7c-2.1,2.5-11.5,8.3-14.8,10.3
	c-2.3,1.4-3.9-1.5-2.2-2.8c1.7-1.3,10.7-6.9,13.5-8.8c5.2-3.5,0.2-11.3-6.1-7.6c-2.7,1.6-5.6,3.2-11.6,6.6
	c-5.7,3.3-9.5,7.6-10.7,18.8c-0.6,5.6,2.8,20.8,2.8,20.8h19.2c0-13.3,15.7-24.4,19.4-31.1c2.3-4.3,2.7-6.1,2.7-9.8
	c0-5.8,0-18.2,0-20.2C107.8,40,98.3,40.2,98.3,47.3z"/>
<path opacity="0.2" fill="#818181" d="M45.6,68.8c-5.9-3.5-8.8-5.1-11.6-6.6c-6.3-3.7-11.2,4.1-6.1,7.6c2.8,1.9,11.8,7.5,13.5,8.8
	c1.7,1.3,0,4.1-2.2,2.8c-3.3-2-12.7-7.8-14.8-10.3c-2.1-2.4-2.7-5.1-2.7-7.7c0-3.4,0-14.2,0-16.1c0-7.2-9.5-7.3-9.5,0
	c0,1.9,0,14.4,0,20.2c0,3.7,0.3,5.5,2.7,9.8c3.7,6.7,19.4,17.8,19.4,31.1h19.2c0,0,3.4-15.3,2.8-20.8C55.2,76.4,51.4,72.1,45.6,68.8
	z"/>
<path opacity="0.2" fill="#818181" d="M39.6,37.9C35,33.4,33,28.5,33,24.1c0-7.5,5-12.5,12.6-12.5c7.1,0,9.5,3.3,13.6,8
	c4.1-4.7,6.6-8,13.6-8c7.6,0,12.6,5,12.6,12.5c0,4.4-2,9.3-6.6,13.8L59.2,57.5L39.6,37.9z"/>
</svg>
