<?xml version="1.0" encoding="utf-8"?>
<!-- Generator: Adobe Illustrator 16.0.0, SVG Export Plug-In . SVG Version: 6.00 Build 0)  -->
<!DOCTYPE svg PUBLIC "-//W3C//DTD SVG 1.1//EN" "http://www.w3.org/Graphics/SVG/1.1/DTD/svg11.dtd">
<svg version="1.1" id="Layer_1" xmlns="http://www.w3.org/2000/svg" xmlns:xlink="http://www.w3.org/1999/xlink" x="0px" y="0px"
	 width="658.91px" height="314.41px" viewBox="0 0 658.91 314.41" enable-background="new 0 0 658.91 314.41" xml:space="preserve">
<g>
	<line fill="none" stroke="#FFFFFF" stroke-width="1.586" x1="13.952" y1="180.53" x2="560.117" y2="180.53"/>
	<path fill="#FFFFFF" d="M56.483,33.072h0.459l34.449,112.074c4.823,15.847,8.498,18.374,16.306,18.374h0.46
		c7.808,0,11.482-2.526,16.305-18.374l34.45-112.074h0.459l15.387,130.447h22.507L178.663,16.996
		c-1.378-11.024-9.416-16.995-17.914-16.995c-9.416,0-15.387,3.445-19.98,18.832l-32.611,108.17h-0.46L75.086,18.833
		C70.493,3.446,64.521,0.001,55.105,0.001c-8.497,0-16.535,5.971-17.913,16.995L18.59,163.52h22.507L56.483,33.072L56.483,33.072z"
		/>
	<path fill="#FFFFFF" d="M349.092,163.52h27.1v-19.292h-24.344c-10.335,0-15.157-3.445-15.157-13.78V72.574h39.501V53.282H336.69
		V25.723h-20.211v102.199C316.479,149.74,328.422,163.52,349.092,163.52L349.092,163.52z"/>
	<path fill="#FFFFFF" d="M416.383,163.52h27.1v-19.292h-24.344c-10.335,0-15.158-3.445-15.158-13.78V72.574h39.502V53.282H403.98
		V25.723h-20.21v102.199C383.771,149.74,395.713,163.52,416.383,163.52L416.383,163.52z"/>
	<g>
		<defs>
			<rect id="SVGID_1_" x="0.123" y="0.001" width="658.785" height="314.408"/>
		</defs>
		<clipPath id="SVGID_2_">
			<use xlink:href="#SVGID_1_"  overflow="visible"/>
		</clipPath>
		<path clip-path="url(#SVGID_2_)" fill="#FFFFFF" d="M501.586,165.816c30.897,0,53.928-20.96,57.192-49.039
			c2.577-2.686,9.496-2.654,12.947-1.255c4.666,1.894,9.568,3.313,9.318,12.184c-0.096,3.348-1.985,6.71-6.987,5.36
			c-4.775-1.289-2.689-6.006-3.75-8.127c-0.693-1.387-3.492-1.843-7.915-1c-2.5,0.477-4.119,16.859,11.128,16.467
			c12.539-0.323,14.238-13.197,12.81-19.775c-1.617-7.469-7.773-13.747-17.063-14.333c-10.168-0.641-13.037,1.105-15.704,2.105
			c-1.795,0.673-2.229,0.333-0.862-1.564c4.582-6.351,12.093-4.637,25.02-4.391c15.173,0.289,20.843-16.991,18.093-26.241
			s-11.326-14.335-20.076-13.698c-9.762,0.71-12.559,5.101-14.844,10.18c-2.791,6.202,1.25,14.25,2.25,16.25s3.42,2.425,5.75,1.25
			c2.75-1.387,6.575-3.084,4.288-6.25c-2.528-3.5-4.014-3.07-4.514-6.434c-0.534-3.585,2.071-7.786,10.33-8.071
			c7.303-0.252,14.018,9.921,10.315,17.977c-4.268,9.288-10.506,5.279-27.517,6.171c-17.319,0.908-22.06,14.182-23.147,18.503
			l-0.087-0.011c-4.134,20.21-13.091,34.449-36.975,34.449c-20.9,0-36.058-15.617-36.058-38.123
			c0-22.507,15.157-38.124,36.058-38.124c12.4,0,18.143,3.675,25.033,10.564l-54.431,30.316l8.269,16.076l74.41-41.339
			c-10.336-21.358-27.561-34.908-53.281-34.908c-30.545,0-57.187,23.425-57.187,57.415
			C444.399,142.39,471.041,165.816,501.586,165.816L501.586,165.816z"/>
		<path clip-path="url(#SVGID_2_)" fill="#FFFFFF" d="M21.132,256.994c0-23.426,18.832-35.827,37.894-35.827h15.617v-19.292H55.352
			c-25.723,0-55.349,19.75-55.349,55.119c0,35.367,29.626,55.118,55.349,55.118h19.291v-19.291H59.025
			C39.964,292.821,21.132,280.418,21.132,256.994L21.132,256.994z"/>
	</g>
	<path fill="#FFFFFF" d="M127.694,295.117c-20.899,0-36.057-15.617-36.057-38.123c0-22.507,15.157-38.124,36.057-38.124
		c12.4,0,18.143,3.674,25.032,10.564L98.298,259.75l8.267,16.076l74.41-41.339c-10.335-21.359-27.559-34.908-53.28-34.908
		c-30.545,0-57.186,23.424-57.186,57.415c0,33.989,26.641,57.415,57.186,57.415c31.692,0,55.117-22.048,57.415-51.215l-20.44-2.526
		C160.535,280.879,151.579,295.117,127.694,295.117L127.694,295.117z"/>
	<path fill="#FFFFFF" d="M234.948,199.579c-26.87,0-47.08,19.291-47.08,48.229v64.305h20.21v-64.305
		c0-16.995,12.401-28.938,26.87-28.938s26.87,11.942,26.87,28.938v64.305h20.21v-64.305
		C282.028,218.87,261.818,199.579,234.948,199.579L234.948,199.579z"/>
	<path fill="#FFFFFF" d="M310.28,103.348c0-31.693-21.833-52.362-55.823-52.362c-35.367,0-56.955,24.803-56.955,56.266
		c0,32.382,22.506,58.564,54.199,58.564c14.01,0,21.817-4.594,29.855-10.564v-23.885c-6.89,8.726-16.306,15.157-27.789,15.157
		c-21.128,0-36.057-17.224-36.057-37.664c0-20.899,14.01-38.583,36.287-38.583c18.373,0,35.827,10.564,35.827,31.234v175.003
		c0,21.818,12.187,35.598,32.855,35.598h27.1v-19.291h-24.344c-10.334,0-15.156-3.446-15.156-13.78v-57.874h39.5v-19.292h-39.5
		V103.348L310.28,103.348z"/>
	<path fill="#FFFFFF" d="M375.963,214.506h-0.46v-12.631h-19.292v110.237h20.21v-51.444c0-29.855,11.483-41.798,31.004-41.798h2.987
		v-19.291h-4.595C392.268,199.579,382.852,203.713,375.963,214.506L375.963,214.506z"/>
	<path fill="#FFFFFF" d="M489.348,266.181c0,16.993-12.401,28.937-26.87,28.937s-26.87-11.943-26.87-28.937v-64.306h-20.21v64.306
		c0,28.937,20.21,48.229,47.08,48.229s47.08-19.292,47.08-48.229v-64.306h-20.21V266.181L489.348,266.181z"/>
	<path fill="#FFFFFF" d="M619.405,199.579c-12.401,0-24.803,5.052-32.152,15.616c-7.349-10.564-19.75-15.616-32.152-15.616
		c-22.507,0-39.502,16.995-39.502,37.664v74.869h20.211v-70.277c0-14.008,7.808-22.965,19.75-22.965
		c13.091,0,21.588,7.35,21.588,26.181v67.062h20.211v-67.062c0-18.831,8.497-26.181,21.588-26.181
		c11.942,0,19.751,8.957,19.751,22.965v70.277h20.211v-74.869C658.908,216.574,641.913,199.579,619.405,199.579L619.405,199.579z"/>
</g>
</svg>
