<?xml version="1.0" encoding="utf-8"?>
<!-- Generator: Adobe Illustrator 18.0.0, SVG Export Plug-In . SVG Version: 6.00 Build 0)  -->
<!DOCTYPE svg PUBLIC "-//W3C//DTD SVG 1.1//EN" "http://www.w3.org/Graphics/SVG/1.1/DTD/svg11.dtd">
<svg version="1.1" id="Layer_1" xmlns="http://www.w3.org/2000/svg" xmlns:xlink="http://www.w3.org/1999/xlink" x="0px" y="0px"
	 viewBox="0 0 60 60" enable-background="new 0 0 60 60" xml:space="preserve">
<g>
	<g opacity="0.2">
		<g>
			<g>
				<path fill="#818181" d="M41.5,27.7c0,4-1,7.2-3,9.4c-2,2.2-4.9,3.4-8.6,3.4c-3.7,0-6.6-1.1-8.6-3.3c-2-2.2-3-5.4-3-9.5
					c0-4.1,1-7.2,3-9.4c2-2.2,4.9-3.3,8.6-3.3c3.7,0,6.5,1.1,8.5,3.3C40.5,20.5,41.5,23.7,41.5,27.7z M22.6,27.7
					c0,3,0.6,5.4,1.8,6.9c1.2,1.6,3.1,2.4,5.5,2.4c2.4,0,4.2-0.8,5.4-2.3c1.2-1.6,1.8-3.9,1.8-7c0-3-0.6-5.3-1.8-6.9
					c-1.2-1.6-3-2.4-5.4-2.4c-2.4,0-4.3,0.8-5.5,2.4C23.2,22.4,22.6,24.7,22.6,27.7z"/>
			</g>
		</g>
		<polygon fill="#818181" points="23.8,46.8 29.9,28.8 36,46.8 40.1,46.8 32.1,25.3 27.7,25.3 19.7,46.8 		"/>
	</g>
	<g opacity="0.2">
		<path fill="#818181" d="M10.9,14l-0.6,0l-1.4-1.3l0-0.6l0.5-0.6l0.6,0l1.4,1.3l0,0.6L10.9,14z M10.8,13l-1.1-1l-0.2,0l-0.2,0.2
			l0,0.2l1.1,1l0.2,0l0.2-0.2L10.8,13z"/>
		<path fill="#818181" d="M12.8,12l-0.4-0.4l0.1-0.1l-1.1-1.3l-0.1,0.1L11,9.8l0.5-0.4l1.1,0.6l-0.4-0.5l-0.1,0.1l-0.4-0.4l0.6-0.5
			L12.7,9l-0.1,0.1l1.5,1.8l-0.4,0.3l-1.2-0.7l0.5,0.6l0.1-0.1l0.4,0.4L12.8,12z"/>
		<path fill="#818181" d="M15.5,9.9l-0.3-0.5l0.1-0.1l-0.9-1.5l-0.1,0.1L14,7.5L14.7,7L15,7.5l-0.1,0.1L15.8,9l0.4-0.3l-0.2-0.3
			l0.5-0.3L17,8.9L15.5,9.9z"/>
		<path fill="#818181" d="M18.4,8.2l-0.2-0.5l0.1-0.1L17.5,6l-0.1,0.1l-0.2-0.5l0.7-0.4l0.2,0.5L18,5.8l0.8,1.6l0.1-0.1l0.2,0.5
			L18.4,8.2z"/>
		<path fill="#818181" d="M20.6,7.2l-0.2-0.5l0.1,0L20,4.9l-0.1,0l-0.2-0.5l0.7-0.2l0.8,1l-0.2-0.6l-0.1,0l-0.2-0.5l0.8-0.3l0.2,0.5
			l-0.1,0l0.8,2.2l-0.5,0.2l-0.9-1.1l0.2,0.7l0.1,0l0.2,0.5L20.6,7.2z"/>
		<path fill="#818181" d="M23.9,6.1l-0.1-0.5l0.1,0l-0.4-1.7l-0.1,0l-0.1-0.5L25,3l0.2,0.8l-0.5,0.1l0-0.2l-0.4,0.1l0.1,0.6l0.2,0
			l0-0.1L24.9,4l0.2,0.8L24.5,5l0-0.1l-0.2,0l0.1,0.6l0.4-0.1l0-0.2L25.4,5l0.2,0.8L23.9,6.1z"/>
		<path fill="#818181" d="M29,5.4l-0.8,0.1l0-0.5l0.1,0l0-0.1l-0.4,0l0,0.2l0.1,0l0,0.5l-0.8,0.1l0-0.5l0.1,0l0.3-2.3l0.5,0l0.7,2.3
			l0.1,0L29,5.4z M28.1,4.4L27.9,4l-0.1,0.5L28.1,4.4z"/>
		<path fill="#818181" d="M30.5,5.4l0-0.5l0.1,0l0.1-1.8l-0.1,0l0-0.5l0.8,0l0,0.5l-0.1,0l0,0.5l0.4-0.4l-0.1,0l0-0.5l0.9,0.1l0,0.5
			l-0.1,0l-0.6,0.6L32.3,5l0.2,0l0,0.5l-0.9-0.1l0-0.5l0.1,0l-0.2-0.6l-0.2,0.2l0,0.4l0.1,0l0,0.5L30.5,5.4z"/>
		<path fill="#818181" d="M35.8,6.1L35,5.9l0.1-0.5l0.1,0V5.3l-0.4-0.1l-0.1,0.1l0.1,0l-0.1,0.5L34,5.7l0.1-0.5l0.1,0l1-2.2l0.5,0.1
			l0.1,2.4l0.1,0L35.8,6.1z M35.2,4.9l0-0.5L35,4.8L35.2,4.9z"/>
		<path fill="#818181" d="M39.1,6.6l-0.6,0.3l-1.2-0.4L37.5,6l0.1,0l0.6-1.7l-0.1,0l0.2-0.5l1.2,0.4l0.3,0.6L39.1,6.6z M39.2,4.8
			l-0.1-0.2l-0.4-0.1l-0.6,1.7l0.4,0.1l0.2-0.1L39.2,4.8z"/>
		<path fill="#818181" d="M40.5,7.7l0.2-0.5l0.1,0.1l0.8-1.6l-0.1-0.1l0.2-0.5l1.5,0.7l-0.3,0.7l-0.5-0.2l0.1-0.2l-0.4-0.2l-0.3,0.5
			L42,6.6l0.1-0.1l0.5,0.2l-0.4,0.8l-0.5-0.2L41.8,7L41.6,7l-0.3,0.5l0.4,0.2l0.1-0.2l0.5,0.2L42,8.4L40.5,7.7z"/>
		<path fill="#818181" d="M44.3,9.9l0.3-0.5l0.1,0.1l0.7-1l-0.6,0.3l0-0.7l-0.7,1l0.1,0.1L44,9.7l-0.7-0.5l0.3-0.5l0.1,0.1l1-1.5
			l-0.1-0.1L45,6.9l0.6,0.4l-0.1,0.7l0.6-0.3L46.6,8l-0.3,0.5l-0.1-0.1l-1,1.5l0.1,0.1L45,10.4L44.3,9.9z"/>
		<path fill="#818181" d="M46.3,11.4l0.4-0.4l0.1,0.1l1.2-1.3l-0.1-0.1l0.4-0.4l0.6,0.5l-0.4,0.4l-0.1-0.1l-1.2,1.3l0.1,0.1
			l-0.4,0.4L46.3,11.4z"/>
		<path fill="#818181" d="M48.1,13l0.4-0.4l0.1,0.1l1.3-1.2l-0.1-0.1l0.4-0.4l0.5,0.5l-0.6,1.1l0.5-0.4l-0.1-0.1l0.4-0.4l0.6,0.6
			L51,12.8l-0.1-0.1l-1.7,1.6l-0.4-0.4l0.6-1.2L49,13.2l0.1,0.1l-0.4,0.4L48.1,13z"/>
	</g>
	<g opacity="0.2">
		<path fill="#818181" d="M11,48c0,0.3-0.1,0.7-0.2,1c-1.2-1-1.9-2.5-1.8-4.2c0-0.3,0.1-0.7,0.2-1C10.4,44.7,11.1,46.3,11,48z"/>
		<path fill="#818181" d="M9.1,49.2c0.2,0.3,0.4,0.6,0.5,0.9c-1.7,0-3.3-0.7-4.4-2.2C5,47.6,4.9,47.3,4.7,47C6.4,47,8,47.7,9.1,49.2
			z"/>
		<path fill="#818181" d="M7.7,43.7c-0.1,0.3-0.2,0.6-0.3,0.8c-0.9-1.1-1.2-2.7-0.8-4.1c0.1-0.3,0.2-0.6,0.3-0.8
			C7.8,40.7,8.2,42.2,7.7,43.7z"/>
		<path fill="#818181" d="M5.8,44.4C5.9,44.7,6,45,6.1,45.3c-1.5-0.2-2.9-1.2-3.6-2.7c-0.1-0.3-0.3-0.6-0.3-0.9
			C3.6,41.9,5,42.9,5.8,44.4z"/>
		<path fill="#818181" d="M5.7,38.9c-0.1,0.3-0.3,0.5-0.5,0.8c-0.7-1.3-0.8-2.8-0.1-4.2c0.1-0.3,0.3-0.5,0.5-0.8
			C6.2,36,6.3,37.5,5.7,38.9z"/>
		<path fill="#818181" d="M3.6,39.2c0.1,0.3,0.2,0.6,0.2,0.9c-1.5-0.5-2.7-1.6-3.2-3.2c-0.1-0.3-0.2-0.6-0.2-0.9
			C1.9,36.5,3.1,37.6,3.6,39.2z"/>
		<path fill="#818181" d="M4.5,29.4c-0.2,0.2-0.5,0.3-0.8,0.5C3.6,28.4,4.3,27,5.5,26c0.2-0.2,0.5-0.3,0.8-0.5
			C6.3,27,5.7,28.4,4.5,29.4z"/>
		<path fill="#818181" d="M5.3,24.9C5,25,4.7,25.2,4.4,25.3c0.1-1.4,0.8-2.8,2.1-3.6c0.3-0.2,0.5-0.3,0.8-0.4
			C7.3,22.7,6.6,24,5.3,24.9z"/>
		<path fill="#818181" d="M3.6,23.9c-0.1,0.3-0.2,0.6-0.4,0.8c-0.8-1.2-1.1-2.7-0.5-4.2c0.1-0.3,0.2-0.6,0.4-0.8
			C3.9,20.9,4.1,22.5,3.6,23.9z"/>
		<path fill="#818181" d="M2.7,28.8c0,0.3-0.1,0.6-0.2,0.9c-1.1-1-1.8-2.6-1.6-4.2c0-0.3,0.1-0.6,0.2-0.9
			C2.2,25.6,2.9,27.1,2.7,28.8z"/>
		<path fill="#818181" d="M4.7,34c-0.2,0.2-0.4,0.4-0.7,0.6c-0.3-1.4,0.1-2.9,1.2-4c0.2-0.2,0.4-0.4,0.7-0.6
			C6.1,31.3,5.7,32.8,4.7,34z"/>
		<path fill="#818181" d="M2.5,33.6c0,0.3,0,0.7,0,1c-1.3-0.8-2.2-2.2-2.3-3.9c0-0.3,0-0.7,0-1C1.5,30.5,2.4,31.9,2.5,33.6z"/>
		<path fill="#818181" d="M6.1,19.9c-0.2,0.2-0.5,0.3-0.7,0.5C5.3,19,5.8,17.6,7,16.7c0.2-0.2,0.5-0.3,0.7-0.5
			C7.8,17.6,7.2,19,6.1,19.9z"/>
		<path fill="#818181" d="M14,52.4l-0.3,0.3C6.7,47.5,2.3,38.8,3,29.4c0.2-3.3,1.1-6.4,2.4-9.2l0.2,0.1c-1.2,2.8-2,5.8-2.2,8.9
			C2.7,38.6,7,47.2,14,52.4z"/>
	</g>
	<g opacity="0.2">
		<path fill="#818181" d="M49,48c0,0.3,0.1,0.7,0.2,1c1.2-1,1.9-2.5,1.8-4.2c0-0.3-0.1-0.7-0.2-1C49.6,44.7,48.9,46.3,49,48z"/>
		<path fill="#818181" d="M50.9,49.2c-0.2,0.3-0.4,0.6-0.5,0.9c1.7,0,3.3-0.7,4.4-2.2c0.2-0.3,0.4-0.6,0.5-0.9
			C53.6,47,52,47.7,50.9,49.2z"/>
		<path fill="#818181" d="M52.3,43.7c0.1,0.3,0.2,0.6,0.3,0.8c0.9-1.1,1.2-2.7,0.8-4.1c-0.1-0.3-0.2-0.6-0.3-0.8
			C52.2,40.7,51.8,42.2,52.3,43.7z"/>
		<path fill="#818181" d="M54.2,44.4c-0.1,0.3-0.3,0.6-0.3,0.9c1.5-0.2,2.9-1.2,3.6-2.7c0.1-0.3,0.3-0.6,0.3-0.9
			C56.4,41.9,55,42.9,54.2,44.4z"/>
		<path fill="#818181" d="M54.3,38.9c0.1,0.3,0.3,0.5,0.5,0.8c0.7-1.3,0.8-2.8,0.1-4.2c-0.1-0.3-0.3-0.5-0.5-0.8
			C53.8,36,53.7,37.5,54.3,38.9z"/>
		<path fill="#818181" d="M56.4,39.2c-0.1,0.3-0.2,0.6-0.2,0.9c1.5-0.5,2.7-1.6,3.2-3.2c0.1-0.3,0.2-0.6,0.2-0.9
			C58.1,36.5,56.9,37.6,56.4,39.2z"/>
		<path fill="#818181" d="M55.5,29.4c0.2,0.2,0.5,0.3,0.8,0.5c0.1-1.4-0.5-2.9-1.8-3.8c-0.2-0.2-0.5-0.3-0.8-0.5
			C53.7,27,54.3,28.4,55.5,29.4z"/>
		<path fill="#818181" d="M54.7,24.9c0.3,0.2,0.5,0.3,0.8,0.4c-0.1-1.4-0.8-2.8-2.1-3.6c-0.3-0.2-0.5-0.3-0.8-0.4
			C52.7,22.7,53.4,24,54.7,24.9z"/>
		<path fill="#818181" d="M56.4,23.9c0.1,0.3,0.2,0.6,0.4,0.8c0.8-1.2,1.1-2.7,0.5-4.2c-0.1-0.3-0.2-0.6-0.4-0.8
			C56.1,20.9,55.9,22.5,56.4,23.9z"/>
		<path fill="#818181" d="M57.3,28.8c0,0.3,0.1,0.6,0.2,0.9c1.1-1,1.8-2.6,1.6-4.2c0-0.3-0.1-0.6-0.2-0.9
			C57.8,25.6,57.1,27.1,57.3,28.8z"/>
		<path fill="#818181" d="M55.3,34c0.2,0.2,0.4,0.4,0.7,0.6c0.3-1.4-0.1-2.9-1.2-4c-0.2-0.2-0.4-0.4-0.7-0.6
			C53.9,31.3,54.3,32.8,55.3,34z"/>
		<path fill="#818181" d="M57.5,33.6c0,0.3,0,0.7,0,1c1.3-0.8,2.2-2.2,2.3-3.9c0-0.3,0-0.7,0-1C58.5,30.5,57.6,31.9,57.5,33.6z"/>
		<path fill="#818181" d="M53.9,19.9c0.2,0.2,0.5,0.3,0.7,0.5c0.1-1.4-0.5-2.8-1.6-3.7c-0.2-0.2-0.5-0.3-0.7-0.5
			C52.2,17.6,52.8,19,53.9,19.9z"/>
		<path fill="#818181" d="M46,52.4l0.3,0.3c7.1-5.3,11.4-13.9,10.7-23.4c-0.2-3.3-1.1-6.4-2.4-9.2l-0.2,0.1c1.2,2.8,2,5.8,2.2,8.9
			C57.3,38.6,53,47.2,46,52.4z"/>
	</g>
</g>
</svg>
