<?xml version="1.0" encoding="utf-8"?>
<!-- Generator: Adobe Illustrator 18.0.0, SVG Export Plug-In . SVG Version: 6.00 Build 0)  -->
<!DOCTYPE svg PUBLIC "-//W3C//DTD SVG 1.1//EN" "http://www.w3.org/Graphics/SVG/1.1/DTD/svg11.dtd">
<svg version="1.1" id="Layer_1" xmlns="http://www.w3.org/2000/svg" xmlns:xlink="http://www.w3.org/1999/xlink" x="0px" y="0px"
	 viewBox="135 235.2 340 340" enable-background="new 135 235.2 340 340" xml:space="preserve">
<g opacity="0.2">
	<g>
		<g>
			<path fill="#818181" d="M423.3,372.5c0,40.8-10.2,73.4-30.6,95.9c-20.4,22.4-50,34.7-87.7,34.7s-67.3-11.2-87.7-33.7
				s-30.6-55.1-30.6-96.9s10.2-73.4,30.6-95.9s50-33.7,87.7-33.7s66.3,11.2,86.7,33.7C413.1,299.1,423.3,331.7,423.3,372.5z
				 M230.5,372.5c0,30.6,6.1,55.1,18.4,70.4c12.2,16.3,31.6,24.5,56.1,24.5c24.5,0,42.8-8.2,55.1-23.5
				c12.2-16.3,18.4-39.8,18.4-71.4c0-30.6-6.1-54.1-18.4-70.4c-12.2-16.3-30.6-24.5-55.1-24.5c-24.5,0-43.9,8.2-56.1,24.5
				C236.6,318.5,230.5,341.9,230.5,372.5z"/>
		</g>
	</g>
	<polygon fill="#818181" points="242.8,567.4 305,383.8 367.2,567.4 409,567.4 327.4,348.1 282.5,348.1 200.9,567.4 	"/>
</g>
</svg>
