<?xml version="1.0" encoding="utf-8"?>
<!-- Generator: Adobe Illustrator 18.0.0, SVG Export Plug-In . SVG Version: 6.00 Build 0)  -->
<!DOCTYPE svg PUBLIC "-//W3C//DTD SVG 1.1//EN" "http://www.w3.org/Graphics/SVG/1.1/DTD/svg11.dtd">
<svg version="1.1" xmlns="http://www.w3.org/2000/svg" xmlns:xlink="http://www.w3.org/1999/xlink" x="0px" y="0px"
	 viewBox="0 0 72 72" enable-background="new 0 0 72 72" xml:space="preserve">
<g id="video">
</g>
<g id="information">
</g>
<g id="oa">
	<g>
		<g>
			<g>
				<path fill="#FFFFFF" d="M61.5,29c0,8.9-2.2,15.8-6.6,20.7S44.2,57,36,57c-8.2,0-14.5-2.4-18.9-7.3c-4.4-4.9-6.6-11.8-6.6-20.8
					c0-9,2.2-15.9,6.6-20.7C21.6,3.4,27.9,1,36.1,1c8.1,0,14.3,2.4,18.8,7.3C59.3,13.2,61.5,20.1,61.5,29z M20,29
					c0,6.7,1.4,11.8,4.1,15.2c2.7,3.5,6.7,5.2,12,5.2c5.3,0,9.3-1.7,12-5.1c2.7-3.4,4-8.5,4-15.3c0-6.7-1.3-11.7-4-15.2
					c-2.7-3.5-6.6-5.2-11.9-5.2c-5.3,0-9.4,1.7-12.1,5.2C21.3,17.3,20,22.3,20,29z"/>
			</g>
		</g>
		<polygon fill="#FFFFFF" points="22.6,71 36,31.3 49.3,71 58.5,71 40.8,23.6 31.2,23.6 13.5,71 		"/>
	</g>
</g>
</svg>
