<?xml version="1.0" encoding="utf-8"?>
<!-- Generator: Adobe Illustrator 18.0.0, SVG Export Plug-In . SVG Version: 6.00 Build 0)  -->
<!DOCTYPE svg PUBLIC "-//W3C//DTD SVG 1.1//EN" "http://www.w3.org/Graphics/SVG/1.1/DTD/svg11.dtd">
<svg version="1.1" xmlns="http://www.w3.org/2000/svg" xmlns:xlink="http://www.w3.org/1999/xlink" x="0px" y="0px"
	 viewBox="0 0 72 72" enable-background="new 0 0 72 72" xml:space="preserve">
<g id="video">
</g>
<g id="information">
	<path fill="#FFFFFF" d="M41.8,49.8c-2.9,2.7-5,4.4-6.3,5.2c-1.4,0.8-2.6,1.2-3.6,1.2c-1,0-1.8-0.3-2.4-1c-0.6-0.6-0.9-1.5-0.9-2.5
		c0-2.7,1.5-8.9,4.6-19.1c0.1-0.2,0.1-0.3,0.1-0.5c-0.1,0.1-0.3,0.1-0.4,0.2c-0.3,0.2-1,0.8-3.3,3c-0.4,0.3-0.9,0.4-1.3,0.1l-1.4-1
		c-0.2-0.2-0.3-0.4-0.4-0.7c0-0.3,0.1-0.5,0.3-0.7c2.1-2.3,4.1-4,5.8-5c1.9-1,3.4-1.6,4.8-1.6c0.9,0,1.6,0.2,2.1,0.7
		c0.6,0.5,0.9,1.1,0.9,1.9c0,0.5-0.2,1.8-2,7.8c-2.6,8.6-3.2,11.7-3.2,12.8c0.5-0.3,1.6-1.1,4.1-3.4c0.4-0.4,1-0.4,1.3,0l1.2,1.2
		c0.2,0.2,0.3,0.4,0.3,0.7C42.1,49.3,42,49.6,41.8,49.8z M36,16.8c0.8-0.8,1.7-1.3,2.8-1.3c0.9,0,1.7,0.3,2.3,0.9
		c0.6,0.6,0.9,1.4,0.9,2.3c0,1.1-0.4,2.2-1.2,3c-0.8,0.9-1.8,1.3-2.8,1.3c-0.9,0-1.7-0.3-2.2-0.9c-0.6-0.6-0.9-1.4-0.9-2.4
		C34.8,18.6,35.2,17.6,36,16.8z M36,1C16.7,1,1,16.7,1,36s15.7,35,35,35s35-15.7,35-35S55.3,1,36,1z"/>
</g>
<g id="oa">
</g>
</svg>
