<?xml version="1.0" encoding="utf-8"?>
<!-- Generator: Adobe Illustrator 18.0.0, SVG Export Plug-In . SVG Version: 6.00 Build 0)  -->
<!DOCTYPE svg PUBLIC "-//W3C//DTD SVG 1.1//EN" "http://www.w3.org/Graphics/SVG/1.1/DTD/svg11.dtd">
<svg version="1.1" id="Layer_1" xmlns="http://www.w3.org/2000/svg" xmlns:xlink="http://www.w3.org/1999/xlink" x="0px" y="0px"
	 viewBox="0 0 40 40" enable-background="new 0 0 40 40" xml:space="preserve">
<g>
	<path opacity="0.2" fill="#818181" d="M31.5,7.1h-23c-0.8,0-1.4,0.6-1.4,1.4v23c0,0.8,0.6,1.4,1.4,1.4h12.4v-10h-3.4V19h3.4v-2.9
		c0-3.3,2-5.2,5-5.2c1.4,0,2.7,0.1,3,0.2v3.5l-2.1,0c-1.6,0-1.9,0.8-1.9,1.9V19h3.9l-0.5,3.9h-3.4v10h6.6c0.8,0,1.4-0.6,1.4-1.4v-23
		C32.9,7.7,32.3,7.1,31.5,7.1z"/>
</g>
</svg>
