<?xml version="1.0" encoding="utf-8"?>
<!-- Generator: Adobe Illustrator 18.0.0, SVG Export Plug-In . SVG Version: 6.00 Build 0)  -->
<!DOCTYPE svg PUBLIC "-//W3C//DTD SVG 1.1//EN" "http://www.w3.org/Graphics/SVG/1.1/DTD/svg11.dtd">
<svg version="1.1" id="Layer_1" xmlns="http://www.w3.org/2000/svg" xmlns:xlink="http://www.w3.org/1999/xlink" x="0px" y="0px"
	 viewBox="0 0 80 40" enable-background="new 0 0 80 40" xml:space="preserve">
<g>
	<g opacity="0.2">
		<path id="u_1_" fill="#818181" d="M31.7,28.4h-2.5V27c-0.9,1.1-1.7,1.6-2.6,1.6c-0.8,0-1.3-0.4-1.6-1c-0.2-0.4-0.3-1-0.3-1.9V15.3
			h2.5V25c0,0.6,0,0.8,0,0.9c0.1,0.4,0.2,0.5,0.5,0.5c0.5,0,0.9-0.4,1.4-1.2v-10h2.5V28.4z"/>
		<path id="o_1_" fill="#818181" d="M23,19.6c0-1.4-0.3-2.5-0.8-3.1c-0.7-0.9-1.7-1.3-2.7-1.3c-1.2,0-2.1,0.4-2.7,1.3
			c-0.5,0.7-0.8,1.7-0.8,3.1l0,4.7c0,1.4,0.2,2.4,0.7,3c0.7,0.9,1.7,1.4,2.8,1.4c1,0,2.1-0.5,2.8-1.4c0.5-0.7,0.7-1.6,0.7-3V19.6z
			 M20.5,24.5c0.1,1.3-0.3,1.9-1,1.9c-0.8,0-1.2-0.6-1-1.9v-5.2c-0.1-1.3,0.3-1.9,1-1.9s1.2,0.6,1,1.9L20.5,24.5z"/>
		<path id="y_1_" fill="#818181" d="M13.2,21.3v7.2h-2.6v-7.2c0,0-2.7-8.8-3.3-10.4h2.7l1.8,6.9l1.8-6.9h2.7L13.2,21.3z"/>
	</g>
	<g opacity="0.2">
		<path fill="#818181" d="M66.9,18.9c0-1.2-0.3-1.6-1.1-1.6c-0.8,0-1.1,0.3-1.1,1.5v1.4l2.2,0V18.9z"/>
		<path fill="#818181" d="M57.2,17.4c-0.4,0-0.8,0.2-1.2,0.6l0,7.9c0.4,0.4,0.8,0.6,1.2,0.6c0.7,0,1-0.5,1-1.8V19
			C58.2,17.7,57.9,17.4,57.2,17.4z"/>
		<path fill="#818181" d="M72.2,12.3c0,0-0.4-2.7-1.5-3.8c-1.5-1.5-3.1-1.5-3.9-1.6c-5.4-0.4-13.6-0.4-13.6-0.4h0
			c0,0-8.2,0-13.6,0.4c-0.8,0.1-2.4,0.1-3.9,1.6c-1.2,1.2-1.5,3.8-1.5,3.8s-0.4,3.1-0.4,6.3v2.9c0,3.1,0.4,6.3,0.4,6.3
			s0.4,2.7,1.5,3.8c1.5,1.5,3.4,1.5,4.3,1.7c3.1,0.3,13.2,0.4,13.2,0.4s8.2,0,13.6-0.4c0.8-0.1,2.4-0.1,3.9-1.6
			c1.2-1.2,1.5-3.8,1.5-3.8s0.4-3.1,0.4-6.3v-2.9C72.6,15.4,72.2,12.3,72.2,12.3z M42.3,28.4h-2.6v-15h-2.7V11l8.2,0v2.5h-2.9V28.4z
			 M51.7,28.4h-2.5V27c-0.9,1.1-1.7,1.6-2.6,1.6c-0.8,0-1.3-0.4-1.6-1c-0.2-0.4-0.3-1-0.3-1.9V15.4h2.5V25c0,0.6,0,0.8,0,0.9
			c0.1,0.4,0.2,0.5,0.5,0.5c0.5,0,0.9-0.4,1.4-1.2v-9.9h2.5V28.4z M60.6,24.5c0,1.2-0.1,2.1-0.3,2.6c-0.3,1-1,1.5-1.9,1.5
			c-0.8,0-1.7-0.5-2.5-1.5l0,1.3h-2.3V11h2.3l0,5.7c0.8-0.9,1.6-1.5,2.5-1.5c0.9,0,1.6,0.5,1.9,1.5c0.2,0.5,0.3,1.4,0.3,2.6V24.5z
			 M65.8,26.4c0.6,0,0.9-0.3,1.1-0.9c0-0.1,0-0.7,0-1.6h2.5v0.4c0,0.8-0.1,1.3-0.1,1.5c-0.1,0.5-0.3,1-0.6,1.4
			c-0.7,0.9-1.6,1.4-2.9,1.4c-1.2,0-2.2-0.4-2.9-1.3c-0.5-0.7-0.8-1.6-0.8-3v-4.6c0-1.4,0.3-2.5,0.8-3.1c0.7-0.9,1.6-1.4,2.8-1.4
			c1.2,0,2.1,0.5,2.8,1.4c0.5,0.7,0.8,1.7,0.8,3.1l0,2.7h-4.7v2.3C64.7,25.8,65,26.4,65.8,26.4z"/>
	</g>
</g>
</svg>
