<?xml version="1.0" encoding="utf-8"?>
<!-- Generator: Adobe Illustrator 18.0.0, SVG Export Plug-In . SVG Version: 6.00 Build 0)  -->
<!DOCTYPE svg PUBLIC "-//W3C//DTD SVG 1.1//EN" "http://www.w3.org/Graphics/SVG/1.1/DTD/svg11.dtd">
<svg version="1.1" id="Layer_1" xmlns="http://www.w3.org/2000/svg" xmlns:xlink="http://www.w3.org/1999/xlink" x="0px" y="0px"
	 viewBox="0 0 40 40" enable-background="new 0 0 40 40" xml:space="preserve">
<g>
	<path opacity="0.2" fill="#818181" d="M33,11.9c-1,0.4-2,0.7-3.1,0.8c1.1-0.7,2-1.7,2.4-3c-1,0.6-2.2,1.1-3.4,1.3
		c-1-1-2.4-1.7-3.9-1.7c-3,0-5.3,2.4-5.3,5.3c0,0.4,0,0.8,0.1,1.2c-4.4-0.2-8.4-2.4-11-5.6c-0.5,0.8-0.7,1.7-0.7,2.7
		c0,1.9,0.9,3.5,2.4,4.5c-0.9,0-1.7-0.3-2.4-0.7c0,0,0,0,0,0.1c0,2.6,1.8,4.8,4.3,5.2c-0.4,0.1-0.9,0.2-1.4,0.2c-0.3,0-0.7,0-1-0.1
		c0.7,2.1,2.7,3.7,5,3.7c-1.8,1.4-4.1,2.3-6.6,2.3c-0.4,0-0.9,0-1.3-0.1c2.4,1.5,5.2,2.4,8.2,2.4c9.8,0,15.2-8.2,15.2-15.2
		c0-0.2,0-0.5,0-0.7C31.4,13.9,32.3,13,33,11.9z"/>
</g>
</svg>
